<svg xmlns="http://www.w3.org/2000/svg" version="1.1" xmlns:xlink="http://www.w3.org/1999/xlink" xmlns:svgjs="http://svgjs.dev/svgjs" width="5120" height="2160" preserveAspectRatio="none" viewBox="0 0 5120 2160"><g mask="url(&quot;#SvgjsMask1100&quot;)" fill="none"><rect width="5120" height="2160" x="0" y="0" fill="rgba(85, 85, 85, 1)"></rect><path d="M0,2316.654C430.053,2242.103,567.361,1684.304,903.549,1405.95C1184.427,1173.392,1604.533,1129.258,1803.329,823.553C2012.93,501.233,2070.656,90.564,2005.313,-288.32C1940.848,-662.117,1663.859,-942.343,1445.314,-1252.372C1200.963,-1599.011,1063.783,-2121.319,649.437,-2211.779C230.239,-2303.299,-89.608,-1824.479,-491.915,-1675.309C-855.543,-1540.481,-1342.898,-1676.741,-1592.979,-1380.324C-1843.296,-1083.628,-1720.055,-631.937,-1699.222,-244.311C-1681.94,77.238,-1570.426,367.243,-1482.408,676.993C-1376.632,1049.237,-1389.638,1471.434,-1130.113,1758.49C-842.521,2076.589,-422.529,2389.901,0,2316.654" fill="#373737"></path><path d="M5120 3417.813C5361.606 3408.476 5619.2 3380.1189999999997 5803.677 3223.822 5981.15 3073.459 5980.018 2808.286 6084.631 2600.532 6194.836 2381.672 6485.089 2210.767 6434.525 1971 6383.142 1727.35 6060.18 1665.365 5857.042 1521.3490000000002 5705.155 1413.6680000000001 5553.985 1324.74 5392.427 1232.199 5175.634 1108.02 4989.518 830.9190000000001 4745.53 884.671 4505.893 937.4649999999999 4489.4400000000005 1289.183 4321.533 1468.125 4143.293 1658.079 3816.133 1713.228 3735.617 1960.956 3654.659 2210.046 3800.1189999999997 2475.06 3918.294 2708.801 4032.91 2935.503 4182.71 3148.928 4401.497 3278.013 4615.984 3404.5609999999997 4871.15 3427.4300000000003 5120 3417.813" fill="#737373"></path></g><defs><mask id="SvgjsMask1100"><rect width="5120" height="2160" fill="#ffffff"></rect></mask></defs></svg>